<svg width="40" height="40" viewBox="0 0 40 40" fill="none" xmlns="http://www.w3.org/2000/svg">
<path d="M34.1099 34.1539C30.2125 38.0513 25.5092 40 20 40C14.4908 40 9.77289 38.0513 5.84615 34.1539C1.94872 30.2271 0 25.5092 0 20C0 14.4908 1.94872 9.78755 5.84615 5.89011C9.77289 1.96337 14.4908 0 20 0C25.5092 0 30.2125 1.96337 34.1099 5.89011C38.0366 9.78755 40 14.4908 40 20C40 25.5092 38.0366 30.2271 34.1099 34.1539ZM26.022 20.6154C27.3407 18.6813 28 16.674 28 14.5934C28 12.3077 27.3114 10.5641 25.9341 9.36264C24.4982 8.10256 22.4908 7.47253 19.9121 7.47253C17.2161 7.47253 14.7692 7.95604 12.5714 8.92308V13.2308C15.0623 11.9707 17.2894 11.3407 19.2527 11.3407C20.5714 11.3407 21.5531 11.6484 22.1978 12.2637C22.8718 12.8791 23.2088 13.8169 23.2088 15.0769C23.2088 16.7766 22.4615 18.5494 20.967 20.3956C19.4139 22.3004 16.4396 24.9817 12.044 28.4396V32.1758H28.0879V28.4396H18.2418V28.3517C22.0806 25.1575 24.674 22.5788 26.022 20.6154Z" fill="black"/>
</svg>
