<svg width="16" height="16" viewBox="0 0 16 16" fill="none" xmlns="http://www.w3.org/2000/svg">
<path d="M7.99902 1.25C6.54548 1.25009 5.19901 1.70993 4.09766 2.49121V1.56445H2.59766V4.95898H5.99316V3.45898H5.36621C6.14051 3.009 7.03916 2.75008 7.99902 2.75C10.8988 2.75002 13.25 5.1012 13.25 8.00098C13.2496 10.9004 10.8985 13.251 7.99902 13.251C5.09969 13.2507 2.74942 10.9003 2.74902 8.00098C2.74902 7.91077 2.75138 7.82042 2.75586 7.73145L2.77539 7.4668L2.85059 6.7207L1.3584 6.57031L1.2832 7.31641L1.25781 7.65625C1.25208 7.77025 1.24902 7.88567 1.24902 8.00098C1.24942 11.7287 4.27127 14.7507 7.99902 14.751C11.727 14.751 14.7496 11.7288 14.75 8.00098C14.75 4.27277 11.7272 1.25002 7.99902 1.25Z" fill="black"/>
</svg>
