<svg width="40" height="40" viewBox="0 0 40 40" fill="none" xmlns="http://www.w3.org/2000/svg">
<path d="M34.1099 34.1539C30.2125 38.0513 25.5092 40 20 40C14.4908 40 9.77289 38.0513 5.84615 34.1539C1.94872 30.2271 0 25.5092 0 20C0 14.4908 1.94872 9.78755 5.84615 5.89011C9.77289 1.96337 14.4908 0 20 0C25.5092 0 30.2125 1.96337 34.1099 5.89011C38.0366 9.78755 40 14.4908 40 20C40 25.5092 38.0366 30.2271 34.1099 34.1539ZM20.7473 17.8462V17.8022L27.6044 11.5604V7.82418H12V11.5604H21.8901V11.6484L15.2088 17.7143V21.0549H17.2308C19.4286 21.0549 21.011 21.3333 21.978 21.8901C22.8864 22.4176 23.3407 23.3114 23.3407 24.5714C23.3407 25.9487 22.9451 26.989 22.1538 27.6923C21.3626 28.3956 20.2198 28.7473 18.7253 28.7473C16.6447 28.7473 14.4469 28.2198 12.1319 27.1648V31.3407C14.1538 32.1319 16.4249 32.5275 18.9451 32.5275C21.9048 32.5275 24.1319 31.8388 25.6264 30.4615C27.1795 29.0549 27.956 27.0769 27.956 24.5275C27.956 22.4176 27.37 20.7766 26.1978 19.6044C25.0256 18.4322 23.3993 17.8462 21.3187 17.8462H20.7473Z" fill="black"/>
</svg>
