<svg width="40" height="40" viewBox="0 0 40 40" fill="none" xmlns="http://www.w3.org/2000/svg">
<path d="M34.1099 34.1539C30.2125 38.0513 25.5092 40 20 40C14.4908 40 9.77289 38.0513 5.84615 34.1539C1.94872 30.2271 0 25.5092 0 20C0 14.4908 1.94872 9.78755 5.84615 5.89011C9.77289 1.96337 14.4908 0 20 0C25.5092 0 30.2125 1.96337 34.1099 5.89011C38.0366 9.78755 40 14.4908 40 20C40 25.5092 38.0366 30.2271 34.1099 34.1539ZM24.2198 7.82418H19.6484L8.65934 23.5165V27.1648H19.6484V32.1758H24.2198V27.1648H27.9121V23.5165H24.2198V7.82418ZM19.6484 23.5165H12.967V23.4286L19.6044 13.9341H19.6484V23.5165Z" fill="black"/>
</svg>
