<svg width="549" height="64" viewBox="0 0 549 64" fill="none" xmlns="http://www.w3.org/2000/svg">
<path d="M138.803 32.5018C137.564 31.8343 137.564 30.1657 138.803 29.4982L159.712 18.2349C160.951 17.5675 162.5 18.4018 162.5 19.7367V42.2633C162.5 43.5982 160.951 44.4325 159.712 43.7651L138.803 32.5018Z" fill="black"/>
<path d="M117.429 32.5018C116.19 31.8343 116.19 30.1657 117.429 29.4982L138.338 18.2349C139.577 17.5675 141.126 18.4018 141.126 19.7367L141.126 42.2633C141.126 43.5982 139.577 44.4325 138.338 43.7651L117.429 32.5018Z" fill="black"/>
<path d="M276.278 12.0952C276.278 11.0958 277.074 10.2856 278.056 10.2856H288.722C289.704 10.2856 290.5 11.0958 290.5 12.0952V51.9047C290.5 52.9041 289.704 53.7142 288.722 53.7142H278.056C277.074 53.7142 276.278 52.9041 276.278 51.9047V12.0952Z" fill="black"/>
<path d="M258.5 12.0952C258.5 11.0958 259.296 10.2856 260.278 10.2856H270.944C271.926 10.2856 272.722 11.0958 272.722 12.0952V51.9047C272.722 52.9041 271.926 53.7142 270.944 53.7142H260.278C259.296 53.7142 258.5 52.9041 258.5 51.9047V12.0952Z" fill="black"/>
<path d="M410.197 32.5018C411.436 31.8343 411.436 30.1657 410.197 29.4982L389.288 18.2349C388.049 17.5675 386.5 18.4018 386.5 19.7367V42.2633C386.5 43.5982 388.049 44.4325 389.288 43.7651L410.197 32.5018Z" fill="black"/>
<path d="M431.571 32.5018C432.81 31.8343 432.81 30.1657 431.571 29.4982L410.662 18.2349C409.423 17.5675 407.874 18.4018 407.874 19.7367L407.874 42.2633C407.874 43.5982 409.423 44.4325 410.662 43.7651L431.571 32.5018Z" fill="black"/>
</svg>
